<svg id="visual" viewBox="0 0 960 540" width="960" height="540" xmlns="http://www.w3.org/2000/svg" xmlns:xlink="http://www.w3.org/1999/xlink" version="1.1"><path d="M261 0L277.2 12.8C293.3 25.7 325.7 51.3 344.2 77C362.7 102.7 367.3 128.3 356.5 154C345.7 179.7 319.3 205.3 318.2 231.2C317 257 341 283 354.8 308.8C368.7 334.7 372.3 360.3 375.2 386C378 411.7 380 437.3 368.5 463C357 488.7 332 514.3 319.5 527.2L307 540L0 540L0 527.2C0 514.3 0 488.7 0 463C0 437.3 0 411.7 0 386C0 360.3 0 334.7 0 308.8C0 283 0 257 0 231.2C0 205.3 0 179.7 0 154C0 128.3 0 102.7 0 77C0 51.3 0 25.7 0 12.8L0 0Z" fill="#f77d81"></path><path d="M280 0L273.7 12.8C267.3 25.7 254.7 51.3 246.3 77C238 102.7 234 128.3 245.7 154C257.3 179.7 284.7 205.3 282.7 231.2C280.7 257 249.3 283 233.3 308.8C217.3 334.7 216.7 360.3 218.3 386C220 411.7 224 437.3 241.2 463C258.3 488.7 288.7 514.3 303.8 527.2L319 540L0 540L0 527.2C0 514.3 0 488.7 0 463C0 437.3 0 411.7 0 386C0 360.3 0 334.7 0 308.8C0 283 0 257 0 231.2C0 205.3 0 179.7 0 154C0 128.3 0 102.7 0 77C0 51.3 0 25.7 0 12.8L0 0Z" fill="#f05e64"></path><path d="M231 0L220.2 12.8C209.3 25.7 187.7 51.3 183.3 77C179 102.7 192 128.3 204.5 154C217 179.7 229 205.3 227.2 231.2C225.3 257 209.7 283 194.8 308.8C180 334.7 166 360.3 162.7 386C159.3 411.7 166.7 437.3 167.3 463C168 488.7 162 514.3 159 527.2L156 540L0 540L0 527.2C0 514.3 0 488.7 0 463C0 437.3 0 411.7 0 386C0 360.3 0 334.7 0 308.8C0 283 0 257 0 231.2C0 205.3 0 179.7 0 154C0 128.3 0 102.7 0 77C0 51.3 0 25.7 0 12.8L0 0Z" fill="#e63946"></path><path d="M173 0L162.3 12.8C151.7 25.7 130.3 51.3 124.8 77C119.3 102.7 129.7 128.3 140.7 154C151.7 179.7 163.3 205.3 164.8 231.2C166.3 257 157.7 283 159.2 308.8C160.7 334.7 172.3 360.3 163.7 386C155 411.7 126 437.3 116.8 463C107.7 488.7 118.3 514.3 123.7 527.2L129 540L0 540L0 527.2C0 514.3 0 488.7 0 463C0 437.3 0 411.7 0 386C0 360.3 0 334.7 0 308.8C0 283 0 257 0 231.2C0 205.3 0 179.7 0 154C0 128.3 0 102.7 0 77C0 51.3 0 25.7 0 12.8L0 0Z" fill="#c8303c"></path><path d="M101 0L92.3 12.8C83.7 25.7 66.3 51.3 67.2 77C68 102.7 87 128.3 86 154C85 179.7 64 205.3 58.5 231.2C53 257 63 283 63.3 308.8C63.7 334.7 54.3 360.3 54.7 386C55 411.7 65 437.3 66.2 463C67.3 488.7 59.7 514.3 55.8 527.2L52 540L0 540L0 527.2C0 514.3 0 488.7 0 463C0 437.3 0 411.7 0 386C0 360.3 0 334.7 0 308.8C0 283 0 257 0 231.2C0 205.3 0 179.7 0 154C0 128.3 0 102.7 0 77C0 51.3 0 25.7 0 12.8L0 0Z" fill="#ab2733"></path></svg>
