<svg id="visual" viewBox="0 0 900 600" width="900" height="600" xmlns="http://www.w3.org/2000/svg" xmlns:xlink="http://www.w3.org/1999/xlink" version="1.1"><path d="M578 600L585.8 585.7C593.7 571.3 609.3 542.7 610.2 514.2C611 485.7 597 457.3 582 428.8C567 400.3 551 371.7 565.3 343C579.7 314.3 624.3 285.7 631.2 257C638 228.3 607 199.7 606.5 171.2C606 142.7 636 114.3 631.5 85.8C627 57.3 588 28.7 568.5 14.3L549 0L900 0L900 14.3C900 28.7 900 57.3 900 85.8C900 114.3 900 142.7 900 171.2C900 199.7 900 228.3 900 257C900 285.7 900 314.3 900 343C900 371.7 900 400.3 900 428.8C900 457.3 900 485.7 900 514.2C900 542.7 900 571.3 900 585.7L900 600Z" fill="#fa7268"></path><path d="M597 600L610.2 585.7C623.3 571.3 649.7 542.7 654.3 514.2C659 485.7 642 457.3 629.8 428.8C617.7 400.3 610.3 371.7 617.5 343C624.7 314.3 646.3 285.7 647 257C647.7 228.3 627.3 199.7 626 171.2C624.7 142.7 642.3 114.3 659.8 85.8C677.3 57.3 694.7 28.7 703.3 14.3L712 0L900 0L900 14.3C900 28.7 900 57.3 900 85.8C900 114.3 900 142.7 900 171.2C900 199.7 900 228.3 900 257C900 285.7 900 314.3 900 343C900 371.7 900 400.3 900 428.8C900 457.3 900 485.7 900 514.2C900 542.7 900 571.3 900 585.7L900 600Z" fill="#ee6057"></path><path d="M756 600L756.2 585.7C756.3 571.3 756.7 542.7 743.8 514.2C731 485.7 705 457.3 690.2 428.8C675.3 400.3 671.7 371.7 675.5 343C679.3 314.3 690.7 285.7 701.7 257C712.7 228.3 723.3 199.7 723.7 171.2C724 142.7 714 114.3 713 85.8C712 57.3 720 28.7 724 14.3L728 0L900 0L900 14.3C900 28.7 900 57.3 900 85.8C900 114.3 900 142.7 900 171.2C900 199.7 900 228.3 900 257C900 285.7 900 314.3 900 343C900 371.7 900 400.3 900 428.8C900 457.3 900 485.7 900 514.2C900 542.7 900 571.3 900 585.7L900 600Z" fill="#e14e46"></path><path d="M748 600L749.3 585.7C750.7 571.3 753.3 542.7 759.2 514.2C765 485.7 774 457.3 768.8 428.8C763.7 400.3 744.3 371.7 749 343C753.7 314.3 782.3 285.7 796.7 257C811 228.3 811 199.7 798.3 171.2C785.7 142.7 760.3 114.3 751.5 85.8C742.7 57.3 750.3 28.7 754.2 14.3L758 0L900 0L900 14.3C900 28.7 900 57.3 900 85.8C900 114.3 900 142.7 900 171.2C900 199.7 900 228.3 900 257C900 285.7 900 314.3 900 343C900 371.7 900 400.3 900 428.8C900 457.3 900 485.7 900 514.2C900 542.7 900 571.3 900 585.7L900 600Z" fill="#d43b35"></path><path d="M829 600L822.3 585.7C815.7 571.3 802.3 542.7 801 514.2C799.7 485.7 810.3 457.3 812.2 428.8C814 400.3 807 371.7 812.5 343C818 314.3 836 285.7 845.3 257C854.7 228.3 855.3 199.7 846.5 171.2C837.7 142.7 819.3 114.3 818 85.8C816.7 57.3 832.3 28.7 840.2 14.3L848 0L900 0L900 14.3C900 28.7 900 57.3 900 85.8C900 114.3 900 142.7 900 171.2C900 199.7 900 228.3 900 257C900 285.7 900 314.3 900 343C900 371.7 900 400.3 900 428.8C900 457.3 900 485.7 900 514.2C900 542.7 900 571.3 900 585.7L900 600Z" fill="#c72424"></path></svg>