<svg id="visual" viewBox="0 0 960 540" width="960" height="540" xmlns="http://www.w3.org/2000/svg" xmlns:xlink="http://www.w3.org/1999/xlink" version="1.1"><g fill="none" stroke="#A7233A" stroke-width="2"><circle r="30" cx="658" cy="13"></circle><circle r="12" cx="109" cy="373"></circle><circle r="22" cx="581" cy="113"></circle><circle r="26" cx="235" cy="86"></circle><circle r="13" cx="681" cy="174"></circle><circle r="19" cx="910" cy="480"></circle><circle r="22" cx="832" cy="234"></circle><circle r="27" cx="91" cy="201"></circle><circle r="12" cx="328" cy="389"></circle><circle r="26" cx="952" cy="345"></circle><circle r="25" cx="192" cy="134"></circle><circle r="28" cx="313" cy="510"></circle><circle r="22" cx="166" cy="239"></circle><circle r="26" cx="39" cy="156"></circle><circle r="21" cx="670" cy="256"></circle><circle r="19" cx="549" cy="525"></circle><circle r="12" cx="762" cy="56"></circle><circle r="26" cx="622" cy="434"></circle><circle r="19" cx="393" cy="357"></circle><circle r="27" cx="473" cy="11"></circle><circle r="12" cx="23" cy="239"></circle><circle r="16" cx="305" cy="295"></circle><circle r="19" cx="811" cy="486"></circle><circle r="25" cx="450" cy="100"></circle><circle r="15" cx="472" cy="399"></circle><circle r="15" cx="320" cy="92"></circle><circle r="24" cx="933" cy="118"></circle><circle r="24" cx="737" cy="439"></circle><circle r="15" cx="643" cy="335"></circle><circle r="15" cx="384" cy="66"></circle><circle r="15" cx="359" cy="191"></circle><circle r="11" cx="460" cy="507"></circle><circle r="13" cx="674" cy="491"></circle><circle r="13" cx="761" cy="274"></circle><circle r="13" cx="500" cy="307"></circle><circle r="11" cx="939" cy="413"></circle><circle r="15" cx="1" cy="27"></circle><circle r="26" cx="851" cy="41"></circle><circle r="14" cx="782" cy="169"></circle><circle r="26" cx="955" cy="218"></circle><circle r="20" cx="53" cy="332"></circle><circle r="12" cx="237" cy="219"></circle><circle r="23" cx="726" cy="108"></circle><circle r="21" cx="544" cy="389"></circle><circle r="27" cx="140" cy="47"></circle><circle r="16" cx="74" cy="517"></circle><circle r="15" cx="872" cy="362"></circle><circle r="17" cx="851" cy="430"></circle><circle r="19" cx="257" cy="7"></circle><circle r="27" cx="738" cy="338"></circle><circle r="13" cx="472" cy="227"></circle><circle r="23" cx="214" cy="453"></circle><circle r="21" cx="599" cy="176"></circle><circle r="13" cx="517" cy="59"></circle><circle r="15" cx="497" cy="168"></circle><circle r="23" cx="128" cy="289"></circle><circle r="17" cx="108" cy="120"></circle><circle r="17" cx="190" cy="303"></circle><circle r="24" cx="515" cy="472"></circle><circle r="20" cx="147" cy="451"></circle><circle r="26" cx="289" cy="438"></circle><circle r="13" cx="898" cy="291"></circle><circle r="24" cx="411" cy="464"></circle><circle r="19" cx="879" cy="188"></circle><circle r="28" cx="337" cy="18"></circle><circle r="28" cx="392" cy="135"></circle><circle r="20" cx="19" cy="463"></circle><circle r="13" cx="290" cy="151"></circle><circle r="21" cx="827" cy="309"></circle><circle r="21" cx="950" cy="19"></circle><circle r="14" cx="585" cy="21"></circle><circle r="20" cx="381" cy="258"></circle><circle r="19" cx="252" cy="349"></circle><circle r="24" cx="140" cy="538"></circle><circle r="26" cx="733" cy="526"></circle><circle r="28" cx="573" cy="271"></circle><circle r="21" cx="396" cy="535"></circle><circle r="23" cx="181" cy="391"></circle><circle r="16" cx="62" cy="58"></circle><circle r="20" cx="4" cy="394"></circle><circle r="11" cx="231" cy="526"></circle><circle r="19" cx="840" cy="123"></circle><circle r="12" cx="955" cy="525"></circle><circle r="15" cx="790" cy="400"></circle><circle r="11" cx="615" cy="519"></circle><circle r="27" cx="671" cy="394"></circle><circle r="22" cx="863" cy="536"></circle><circle r="25" cx="68" cy="422"></circle><circle r="25" cx="6" cy="533"></circle><circle r="24" cx="547" cy="213"></circle><circle r="25" cx="192" cy="7"></circle><circle r="27" cx="649" cy="110"></circle><circle r="12" cx="303" cy="227"></circle><circle r="17" cx="399" cy="4"></circle><circle r="24" cx="434" cy="296"></circle><circle r="21" cx="733" cy="212"></circle></g></svg>